<?xml version="1.0" encoding="UTF-8"?>
<svg width="302px" height="298px" viewBox="0 0 302 298" version="1.1" xmlns="http://www.w3.org/2000/svg" xmlns:xlink="http://www.w3.org/1999/xlink">
    <title>Group 2</title>
    <defs>
        <linearGradient x1="50%" y1="0%" x2="50%" y2="99.4400131%" id="linearGradient-1">
            <stop stop-color="#1128F1" offset="0%"></stop>
            <stop stop-color="#606DE4" offset="100%"></stop>
        </linearGradient>
        <linearGradient x1="50%" y1="0%" x2="50%" y2="100%" id="linearGradient-2">
            <stop stop-color="#1128F1" offset="0%"></stop>
            <stop stop-color="#B7BFFE" offset="100%"></stop>
        </linearGradient>
    </defs>
    <g id="TRACE-L2" stroke="none" stroke-width="1" fill="none" fill-rule="evenodd">
        <g id="Group-2" stroke-width="7.53637727">
            <path d="M145.346558,47.6071185 C147.566439,47.6071185 149.786319,48.2924535 151.672064,49.6631233 L247.134157,119.05057 C249.018702,120.420368 250.355252,122.318894 251.040753,124.428931 C251.726253,126.538969 251.760703,128.860516 251.041046,131.076357 L214.575206,243.355505 C213.855265,245.572217 212.462513,247.431034 210.667072,248.735674 C208.871631,250.040313 206.673503,250.790774 204.34281,250.790774 L86.350306,250.790774 C84.0196137,250.790774 81.821485,250.040313 80.0260444,248.735674 C78.2306037,247.431034 76.8378511,245.572217 76.1179109,243.355505 L39.6520701,131.076357 C38.9324131,128.860516 38.9668631,126.538969 39.6523636,124.428931 C40.337864,122.318894 41.6744148,120.420368 43.5589594,119.05057 L139.021052,49.6631233 C140.906797,48.2924535 143.126678,47.6071185 145.346558,47.6071185 Z" id="Polygon" stroke="url(#linearGradient-1)"></path>
            <path d="M151.006032,49.1201098 C153.226029,49.1200497 155.446045,49.8053964 157.33189,51.1761589 L252.781789,120.555767 C254.666371,121.925612 256.002926,123.824206 256.688396,125.934306 C257.373866,128.044406 257.408251,130.366013 256.688495,132.581882 L220.21474,244.87144 C219.494789,247.087911 218.102163,248.946544 216.306908,250.251105 C214.511652,251.555666 212.313768,252.306155 209.983303,252.306336 L91.997734,252.315503 C89.666691,252.315684 87.4682151,251.565172 85.6725428,250.260335 C83.8768705,248.955498 82.4840018,247.096336 81.7641733,244.879219 L45.3100711,132.598295 C44.5907321,130.382685 44.625302,128.061452 45.3107575,125.95169 C45.9962131,123.841928 47.3325543,121.943636 49.2167581,120.57391 L144.680285,51.1765013 C146.566055,49.8056367 148.786034,49.1201698 151.006032,49.1201098 Z" id="Polygon-Copy" stroke="url(#linearGradient-2)" transform="translate(151.0002, 149.002) rotate(30) translate(-151.0002, -149.002)"></path>
        </g>
    </g>
</svg>